<svg xmlns="http://www.w3.org/2000/svg" width="682.667" height="682.667" version="1.0" viewBox="0 0 512 512"><path d="M260 90.6c-15.4 6.9-31.5 13.2-72 28.4-36.1 13.5-44.4 17-48.2 20.7-8.3 8-7.3 24.7 2 34.5 1.9 2.1 2.2 2.8 1 2.8-.9 0-2.1.7-2.8 1.5-1.1 1.3-1.1 2 0 4 .8 1.6 1 3.9.6 6.7-.4 2.4-.9 6.2-1.3 8.4l-.5 4.2 12.8 4.2c27.7 9.2 71 26.8 69.6 28.2-.5.5-3.8-.5-7.5-2.2-3.6-1.6-10.6-4.1-15.4-5.5s-12.3-3.7-16.5-5.1l-7.7-2.6-12.3 5.2c-6.8 2.8-13.1 5.9-14 6.7-2.4 2.1-2.3 8.6.1 13.8 1.7 3.8 8.3 10.7 11.2 11.7 2 .7 1.7.9-11.5 6.4-6.5 2.7-12.9 5.9-14.2 7.1-4 3.7-3.1 9.3 3 18.7 3.1 4.6 6.6 16.9 5.3 18.3-.3.2-12.7 4-27.7 8.4-15 4.3-27.6 8.2-28.1 8.5s-.9 0-.9-.5c0-1.7-3.7-1.3-4.4.5-.9 2.2-.9 2 2.9 6.3 3.8 4.2 7 10.6 8 16.2s-1.1 11.6-6.1 16.9c-4.3 4.6-5 6.3-3.8 9.5.8 2.1 4.5 3.9 24.4 12 31.1 12.7 36.4 15 110.5 47.5 7.2 3.1 20.3 9.2 29.3 13.5l16.4 7.8 6.1-2.6c3.4-1.4 15.9-6.6 27.7-11.7 27.3-11.7 54.9-22.8 60.9-24.5 2.5-.8 8.7-2 13.6-2.8 7.5-1.2 13.7-3.5 37-13.4 17.3-7.4 28.1-12.6 28.3-13.5.2-1-1.3-2.2-4.4-3.5l-4.8-1.9-19 8.4c-28.1 12.4-138.8 58.4-139.2 57.9-.3-.2 7.8-3.9 17.8-8.2 10.1-4.2 20.5-8.6 23.1-9.7 2.6-1.2 4.6-2.2 4.4-2.4-.4-.4-30 10.7-40 15-2.7 1.1-3.7 1.2-3.4.3.4-1.3 3.6-2.6 41.2-16.5 28.4-10.6 109.2-44.6 111.7-47 .4-.4-.4-3-1.7-5.6-4.1-8.2-3.4-10.6 5.1-16.4 1.6-1.1 1.1-1.2-3.3-.7-4.5.5-5.3.3-5.3-1.1 0-2.3 2.2-9.4 2.9-9.4.3 0 2.4-1.1 4.6-2.4l3.9-2.4-6.2-1.2c-3.4-.7-6.5-1.6-6.7-2.1-.3-.4 2.1-1.7 5.2-2.9 3.2-1.2 8.8-3.3 12.6-4.7 10.3-3.9 9.3-5.6-6.1-10.1-5.7-1.7-11.3-3.8-12.4-4.9-2.9-2.6-5.8-8.7-5.8-12.1 0-2.5.6-3.1 4-4.2 2.2-.7 4-1.6 4-2 0-1.1-4.4-2.7-15.5-5.6-5.5-1.4-11.2-3.3-12.7-4.2-2.5-1.5-2.6-1.7-1.2-4.3 2.4-4.6 1.8-5.6-3.8-6.9-11-2.6-17.8-8.2-17.8-14.6 0-3 .5-3.6 5.1-5.9 7.3-3.8 6.5-5.2-6.1-10.2-5.8-2.3-11-4.6-11.7-5.2s-1.9-1.1-2.7-1.1c-.7 0-2.8-1.3-4.5-2.9-2.6-2.4-3.1-3.7-3.1-7.3 0-6.3 1.8-8.3 9-9.8 3.4-.7 7.1-2.1 8.2-3 2.2-1.8 1.7-4-.9-4-1.5 0-23 6.4-66.8 20-48.4 15-58.2 16.9-64.2 12.4-2.8-2.1-4.2-5.9-2.6-7.5.4-.4 6.7-1.7 13.8-2.9 7.2-1.1 18.9-3.6 26.2-5.5 25.6-6.7 82.1-24.4 110.1-34.5 3.7-1.4 4-2.9 1.1-5.6-2.6-2.3-4.9-7.4-4.9-10.9 0-1.5-.4-2.4-1-2-1.5.9-1.2 6.6.5 9.5.8 1.4 1.4 3 1.5 3.7 0 1.8-78.6 26.9-107.5 34.3-8.2 2.1-17 4-19.5 4.2l-4.5.3-.6-5.5c-.3-3-.3-5.9.1-6.3.4-.5 12.8-4.2 27.6-8.2 23.1-6.4 77.1-23.1 94.4-29.3l5.5-2-4-.6c-2.2-.4-5.1-1-6.5-1.2l-2.5-.6 2.5-1.3c1.4-.8 6.1-2.6 10.5-4.1s8.4-3 8.9-3.5-.4-2-2.1-3.6c-4.7-4.4-5.5-15.9-1.6-22.1.8-1.3 1.2-3.1.8-4-.4-1 .4-2.4 2.2-3.8 1.8-1.5 2.4-2.6 1.8-3.2-.5-.5-8.2-3.5-17-6.7-22.2-8-57.3-21.6-73.8-28.6-7.5-3.3-14.3-5.9-15-5.9-.6 0-6.8 2.5-13.7 5.6m23.9 4c14.3 6.3 43.6 17.7 66.1 25.9 10.2 3.7 19.4 7.2 20.5 7.8 1.9 1 1.8 1.1-1.5 2.5-5.6 2.3-91 32.9-108 38.7l-15.5 5.2-3.5-2.7c-5-4-20.2-10.2-45.5-18.6-32.2-10.6-47.1-12.9-51.9-8.1-3.3 3.3-4 8.7-2.1 15.3 2 7.1 7.7 13.3 15.3 16.9 16.7 7.9 71 28.1 73.5 27.2.6-.2-1.9-1.4-5.8-2.7-12.2-4-31.4-11.5-50.3-19.5-19.9-8.5-24-11.5-26.1-19.2-2.2-7.7-.9-16.7 2.5-18 2.6-1 17.2 2.4 34.1 7.8 19.5 6.3 50.5 18.2 53.7 20.6 1.4 1 3.5 3.6 4.8 5.8 2 3.5 2.3 5.3 2.3 14.7 0 9.8-.2 10.8-2.4 13.2-4.9 5.2-7.3 5.1-21.6-.3-25.3-9.6-59.1-22.9-66-26-12.7-5.8-17.9-13.4-18-26.2 0-6.7.3-7.9 2.7-11.1 1.7-2.2 4.5-4.2 7-5.2 2.4-.8 13.1-4.7 23.8-8.6 46.6-16.9 76.4-28.6 93-36.4 4.1-1.9 7.7-3.5 7.9-3.6.2 0 5.1 2.1 11 4.6m86.9 45.6c-.5 2.4-.8 8.2-.5 13l.4 8.8-5.1 1.9c-2.8 1-9.6 3.9-15.1 6.4-10.6 4.7-48.9 17.9-79.5 27.3-10.2 3.1-18.9 5.9-19.5 6.1s-.9-1.7-.7-5c.3-5-.8-14.1-2.3-17.8-.4-1.2.8-1.9 5.2-3.3 8.2-2.6 63.1-21.8 92.8-32.5 13.8-5 25.1-9 25.1-9.1.1 0-.3 1.9-.8 4.2m-190 58.7c19.6 7.6 38.1 14.6 41 15.7l5.3 1.8-.7 6.1c-.4 3.3-1 6.4-1.4 6.8-.4.5-11.7-3.8-25.1-9.4s-31.6-13.1-40.4-16.5l-16-6.3-.3-6c-.2-3.9.1-6.1.8-6.1.6 0 17.2 6.2 36.8 13.9m57.7 22.3c-.4 2.9-1 5.6-1.4 6-.3.4-2.5 1-4.7 1.4-4.6.7-4.4 1.4-2.9-7.8.6-3.8 1.6-4.5 6.8-4.7l2.9-.1zm101.2 3.5c-.1 2.1.2 5 .6 6.5l.7 2.7-21.6 7.1c-21.3 7-77 24-78.6 24-1.1 0-1-11.8.2-14 .6-1.1 2.7-2.1 5.2-2.5 6-1 47.3-13.1 71.3-20.9 11-3.5 20.6-6.5 21.2-6.5.8-.1 1.2 1.2 1 3.6m-165.7 1c0 .4-1.2 1.9-2.7 3.5-1.4 1.5-2.4 3.1-2.1 3.4.4.3 5.5 0 11.5-.6l10.8-1.2 12.1 5.5c6.6 3.1 16.5 7.4 22 9.6l9.9 4 .3 8.5c.2 5.9-.1 8.6-.9 8.6-1.8 0-23.9-9.1-51.1-21-13.7-6.1-26.1-11.3-27.4-11.6s-2.4-1-2.4-1.4c0-.7 17.4-7.9 19.3-8 .4 0 .7.3.7.7m-1.5 19.6c18.7 8.2 40.5 18.3 41.3 19.2.4.4-.2.5-1.3.2s-7.6-1.1-14.4-1.7c-12.9-1.3-12.1-1-37.4-11.7-4-1.7-7.1-5.8-8.2-11-.6-3.1-.6-3.2 2.2-2.4 1.5.5 9.6 3.8 17.8 7.4m171-7.4c.8 1.4-1.6 2.5-16 6.9-15.6 4.8-20.4 5.9-19 4.3 1.2-1.2 30.1-11.9 32.7-12 .9-.1 1.9.3 2.3.8m15.1 7.5c9.5 3.3 10.4 3.7 10.4 4.7 0 1.7-32.8 10.7-59.9 16.4-26.7 5.5-51 8.5-54.1 6.5-1.2-.8-1.2-1 .5-1 2.4 0 16.9-4.4 60.5-18.4 17.9-5.8 33.2-10.5 34.1-10.5.8-.1 4.7 1 8.5 2.3m3.2 14.3c-.4 2-9.9 4.6-52.6 14.4-16.7 3.8-37.5 8.7-46.3 10.9-8.7 2.2-16.6 4-17.5 4-1.6 0-1.6-.1.1-1.4 1.7-1.2 1.7-1.6.6-3-.8-.9-1.2-1.8-1-2s9.9-1.8 21.4-3.6c33.9-5.2 76.5-14.4 90-19.4 5.2-1.9 5.7-1.9 5.3.1M167 260.9c0 .5-2.2 2.3-5 4-2.7 1.7-5 3.2-5 3.3 0 .2 8.9.3 19.8.4 10.8 0 24 .6 29.2 1.3 9.3 1.2 26.5 6.2 28.5 8.3.7.7.4.8-1 .4-6.6-1.9-34.8-3.8-63.3-4.3-23.1-.4-32.2-.9-31.9-1.7.4-1.1 25.2-12.5 27.5-12.6.6 0 1.2.4 1.2.9m198.8 5.5c1.1 1.9 4.1 4.6 6.7 6.1 4 2.4 4.4 3 3.3 4.2-1.8 1.8-16.6 6.2-72.3 21.7-24.7 6.9-47.9 13.4-51.5 14.4l-6.5 1.9-.2-10.7-.1-10.6 18.6-4.7c10.3-2.6 28.7-6.9 40.9-9.6 29.2-6.6 52.4-12.6 56-14.5 1.5-.8 2.9-1.5 3-1.6 0 0 1 1.5 2.1 3.4M174 281.6c26.8 3.1 62.2 9.5 64.8 11.7 2.5 2 5.2 8.6 5.2 12.4 0 4-3.2 10.3-5.1 10.3-.7 0-11.8-3.1-24.8-6.9-33.6-9.9-56.7-16-63.1-16.8-3-.3-6.1-1.1-6.9-1.7-1.7-1.3-7.1-9.6-7.1-10.9 0-1.1 20-.1 37 1.9m43 1c19 1.5 25.4 2.7 24.7 4.7-.6 1.7-6.1 1.1-32.2-3.3-12.6-2.2-20.3-3.7-17-3.4 3.3.2 14.3 1.1 24.5 2m161.6 1.3c-.7 1.1-22.2 6.4-23.8 5.9-1.4-.5 18.7-6.6 22-6.7 1.3-.1 2.1.3 1.8.8m7.8 4.4c3.6 2.6-9.7 7.1-53.5 18.2-36.1 9.1-42 10.4-46.7 9.8-6.3-.7-5.8-1.5 2.3-3.2 3.3-.7 20.2-5.3 37.5-10.3 27.7-7.8 56.4-15.6 58.1-15.8.3 0 1.3.6 2.3 1.3m1.8 9.4c-13 4.2-57.4 16.8-70.7 20.1-5.5 1.3-19.2 4.9-30.5 7.9-17 4.5-21.3 5.4-25.4 4.8-6.1-.8-23.6-6.3-23.6-7.4 0-2.1 5.5-1.5 13.4 1.4l8.6 3.3 13.2-3.9c7.3-2.2 17.8-4.9 23.3-6 8.5-1.7 24-5.6 90-22.4 12.8-3.3 14-1.7 1.7 2.2m-219.9 6.2c21.9 8.4 25.8 10.2 24.1 10.8-1 .3-13.2-4-38.1-13.7-8-3-11-5-7.9-5 .8 0 10.6 3.5 21.9 7.9m239.7-6.2c-1.9.8-19.9 6.4-40 12.4s-49.2 15-64.8 20c-20.5 6.6-28.7 8.8-29.4 8.1-1.4-1.4-6.1.4 39.7-14.6 55.7-18.1 87.7-27.5 94.5-27.4h3.5zm-.8 6.3c0 1.6.1 3.5.2 4.1.1.7-3.2 2.3-7.1 3.7-4 1.4-7.1 2.7-6.9 3 .2.2 4.1-.6 8.6-1.8 7-2 10.5-2.1 8.9-.5-.3.2-14.9 4.8-32.5 10.1-47.5 14.2-84.8 26.3-98.5 31.9-1.3.5-1.6.1-1.2-1.7.2-1.3-.2-4.3-1.1-6.8-.8-2.4-1.4-4.5-1.2-4.7.3-.3 27-8.8 55.1-17.5 8.7-2.7 26.5-8 39.5-11.8 12.9-3.8 26-7.7 29-8.8 7.3-2.6 7-2.6 7.2.8m-240.1 5.1c9.6 3.9 31 12.9 47.5 20 16.6 7.1 30.8 12.9 31.7 12.9s1.9-.5 2.2-1c1.6-2.6 8.9-5.2 13.3-4.7 7.5.8 14.2 7.7 14.2 14.7 0 3.9-4.8 12.6-7.5 13.6-.8.4-21-7.1-44.9-16.5-23.9-9.5-50.8-19.8-59.8-23.1-13.5-4.9-16.2-6.2-16-7.7.2-1 .3-4.8.4-8.6 0-3.7.3-6.7.7-6.7.5 0 8.6 3.2 18.2 7.1m249.4 9.8 3.3 2.9-24.7 9.2c-37.2 13.9-89 33.5-103.3 39-7.1 2.7-13.5 4.7-14.3 4.3-1.9-.7-4.5-5.4-4.5-8 0-4.8 2.1-5.7 42.7-19.1 72.1-23.8 94.8-31.1 96.2-31.2.7 0 2.8 1.3 4.6 2.9m-247.8 11c34.1 12.3 42.3 15.5 42.3 16.3 0 1.6-3.9.7-14.1-3.3-5.7-2.2-20.3-7.6-32.3-12-12.1-4.3-22.2-8.1-22.4-8.4-.3-.3.7-.5 2.1-.5 1.5 0 12.5 3.5 24.4 7.9m261.3-5.8c1.1.6-.1 1.5-4.5 3.4-28.9 12.9-136.4 53.6-146.7 55.5-4 .8-6.7.5-16-1.9-6.2-1.6-14.8-4.3-19.1-6.1-7.5-3.2-7.8-3.4-5.5-4.6 3.8-2.2 7.2-1.6 20.6 3.2 7 2.6 14.5 4.9 16.7 5.1 4.7.5 39-11.8 125.8-45.2 16.5-6.4 22.7-9.2 22.3-10.2s.1-1.2 2.2-.7c1.5.4 3.4 1 4.2 1.5m-307 12.6c30.3 10.7 56.9 20.7 71.8 26.8 9.3 3.8 47.2 20.5 50.6 22.2 2.9 1.5 2.9 1.6 1 2.9-5.1 3.7-10.9 10.4-13.1 15.1-1.4 2.9-2.7 5.3-3 5.3s-14.6-5.6-31.7-12.4c-35.6-14.2-59.4-22.9-85.1-31.2l-18-5.7v-9.4c0-7.9.2-9.2 1.5-8.7.8.3 9.2 3.2 18.5 6.4 30.6 10.4 56.6 20.1 83.8 31 14.7 6 26.7 10.6 26.7 10.4 0-1.1-29.4-14.6-45.5-20.9-18.3-7.3-46.7-17.6-71.2-25.9-13.2-4.4-15.4-5.4-16.4-7.7-.6-1.5-2.4-3.9-4-5.5-3.5-3.4-3.9-5.8-.6-4.9 1.2.4 16.8 5.8 34.7 12.2m167-8.6c-6.3 2.1-11.9 3.8-12.3 3.6-1.1-.3 20.2-7.5 22.3-7.5.8 0-3.7 1.7-10 3.9m125.6 18.4c-.3.8-.8 3.6-1.2 6.3l-.6 4.7-55.6 21.9c-30.7 12.1-61.1 24.1-67.7 26.7-6.5 2.6-12 4.7-12 4.6-1.2-2.1-4.4-11.1-4.2-11.4.2-.1 8.4-3.4 18.3-7.1 43.2-16.6 90.2-34.6 105.4-40.6 9.1-3.6 16.9-6.5 17.4-6.5.4-.1.6.6.2 1.4m-203.5 1.8c-1 .9-1.1.8-.5-.6.3-1 .9-1.5 1.2-1.2s0 1.1-.7 1.8m202.7 17.8c.1 2.3 1 5.5 1.8 7.1.9 1.6 1.3 3.2 1 3.5-.6.6-41.3 18.3-73.1 31.7-18 7.6-70.7 27.6-72.8 27.6-.5 0 4.9-11.7 8.2-17.9.4-.8 15.5-7.4 33.7-14.6 33.6-13.5 100.9-41.1 100.9-41.4 0-.1.1 1.8.3 4m-319.9-1.7c-.2.2-2 1.1-3.9 2.1l-3.5 1.8 1.9-2.2c1.1-1.1 2.8-2.1 3.9-2.1s1.8.2 1.6.4m14.7 5c23.4 8 73.2 27.6 103.4 40.7 13.5 5.9 17 8.4 17 12.1 0 1 .9 3.7 2.1 5.9 1.1 2.3 1.7 4 1.2 3.8-.4-.2-3.6-1.9-7-3.6-15.7-8.2-77.7-34.8-122.1-52.4L88 369.5l3.7-1.7c5.3-2.3 6.7-2.2 17.9 1.6m168.2 19.8c.3 1.5-.5 1.8-5.1 1.8-5.8 0-11.7-1.6-11.7-3.1 0-.6 3.5-.9 8.2-.7 7 .3 8.3.6 8.6 2m-16.7 3.7c2.4 1.5 5.6 4.1 7.1 5.7 3.8 4.1 7.1 11.9 6.2 14.7-.4 1.2-.6 3.7-.5 5.5.2 2.2-1.5 6.8-5.5 15.2-3.1 6.6-6.1 12-6.7 12-.5 0-4.9-2.1-9.7-4.6-7.5-3.8-9.4-5.3-12.6-10-6.6-9.6-5.8-20.8 2.3-31.4 3.7-4.8 10.5-10 13.3-10 .9 0 3.6 1.3 6.1 2.9m-35.3 17.2c2.3 1 4.2 2.3 4.2 2.9 0 1.2-6-1.1-10.5-4.1-2.7-1.8-2.8-2-.5-1.3 1.4.4 4.4 1.5 6.8 2.5"/><path d="M171 139.4c0 .5 15.5 6.7 44 17.6 22.8 8.8 22 8.5 18.3 6-5.1-3.4-26.3-12.3-44.1-18.4-15.8-5.4-18.2-6.1-18.2-5.2M168.5 165.9c4.9 3.4 52 21 53.1 19.8.9-.9-42.9-18.2-53.6-21.2-2.3-.6-2.3-.5.5 1.4"/></svg>